<svg xmlns="http://www.w3.org/2000/svg" style="display: none;"><symbol id="play-button-arrowhead" viewBox="0 0 163.861 163.861"><title>play-button-arrowhead</title><path d="M34.857,3.613C20.084-4.861,8.107,2.081,8.107,19.106v125.637c0,17.042,11.977,23.975,26.75,15.509L144.67,97.275 c14.778-8.477,14.778-22.211,0-30.686L34.857,3.613z"/></symbol><symbol id="music-pause-button-pair-of-lines" viewBox="0 0 277.338 277.338"><title>music-pause-button-pair-of-lines</title><path d="M14.22,45.665v186.013c0,25.223,16.711,45.66,37.327,45.66c20.618,0,37.339-20.438,37.339-45.66V45.665 c0-25.211-16.721-45.657-37.339-45.657C30.931,0,14.22,20.454,14.22,45.665z"/><path d="M225.78,0c-20.614,0-37.325,20.446-37.325,45.657V231.67c0,25.223,16.711,45.652,37.325,45.652s37.338-20.43,37.338-45.652 V45.665C263.109,20.454,246.394,0,225.78,0z"/></symbol><symbol id="fast-forward-arrowhead-symbol" viewBox="0 0 253.296 253.296"><title>fast-forward-arrowhead-symbol</title><path d="M26.75,62.119C11.985,53.645,0,60.585,0,77.625v98.061c0,17.025,11.985,23.959,26.75,15.493l85.784-49.183 c14.773-8.471,14.773-22.214,0-30.683L26.75,62.119z"/><path d="M156.437,191.178l85.775-49.183c14.778-8.471,14.778-22.214,0-30.683l-85.775-49.189 c-14.773-8.474-26.756-1.533-26.756,15.506v98.061C129.681,192.71,141.663,199.65,156.437,191.178z"/></symbol><symbol id="fast-forward-arrowhead-symbol-1" viewBox="0 0 253.296 253.296"><title>fast-forward-arrowhead-symbol-1</title><g transform="matrix(-1,0,0,1,253.29550170898438,0)"> <g xmlns="http://www.w3.org/2000/svg"> <path d="M26.75,62.119C11.985,53.645,0,60.585,0,77.625v98.061c0,17.025,11.985,23.959,26.75,15.493l85.784-49.183 c14.773-8.471,14.773-22.214,0-30.683L26.75,62.119z" fill="#000000" data-original="#000000" style="" class=""/> <path d="M156.437,191.178l85.775-49.183c14.778-8.471,14.778-22.214,0-30.683l-85.775-49.189 c-14.773-8.474-26.756-1.533-26.756,15.506v98.061C129.681,192.71,141.663,199.65,156.437,191.178z" fill="#000000" data-original="#000000" style="" class=""/> </g> </g></symbol></svg>