<svg xmlns="http://www.w3.org/2000/svg" style="display: none;"><symbol id="play-button-arrowhead" viewBox="0 0 163.861 163.861"><title>play-button-arrowhead</title><path d="M34.857,3.613C20.084-4.861,8.107,2.081,8.107,19.106v125.637c0,17.042,11.977,23.975,26.75,15.509L144.67,97.275 c14.778-8.477,14.778-22.211,0-30.686L34.857,3.613z"/></symbol><symbol id="music-pause-button-pair-of-lines" viewBox="0 0 277.338 277.338"><title>music-pause-button-pair-of-lines</title><path d="M14.22,45.665v186.013c0,25.223,16.711,45.66,37.327,45.66c20.618,0,37.339-20.438,37.339-45.66V45.665 c0-25.211-16.721-45.657-37.339-45.657C30.931,0,14.22,20.454,14.22,45.665z"/><path d="M225.78,0c-20.614,0-37.325,20.446-37.325,45.657V231.67c0,25.223,16.711,45.652,37.325,45.652s37.338-20.43,37.338-45.652 V45.665C263.109,20.454,246.394,0,225.78,0z"/></symbol><symbol id="fast-forward-arrowhead-symbol" viewBox="0 0 253.296 253.296"><title>fast-forward-arrowhead-symbol</title><path d="M26.75,62.119C11.985,53.645,0,60.585,0,77.625v98.061c0,17.025,11.985,23.959,26.75,15.493l85.784-49.183 c14.773-8.471,14.773-22.214,0-30.683L26.75,62.119z"/><path d="M156.437,191.178l85.775-49.183c14.778-8.471,14.778-22.214,0-30.683l-85.775-49.189 c-14.773-8.474-26.756-1.533-26.756,15.506v98.061C129.681,192.71,141.663,199.65,156.437,191.178z"/></symbol><symbol id="fast-forward-arrowhead-symbol-1" viewBox="0 0 253.296 253.296"><title>fast-forward-arrowhead-symbol-1</title><g transform="matrix(-1,0,0,1,253.29550170898438,0)"> <g xmlns="http://www.w3.org/2000/svg"> <path d="M26.75,62.119C11.985,53.645,0,60.585,0,77.625v98.061c0,17.025,11.985,23.959,26.75,15.493l85.784-49.183 c14.773-8.471,14.773-22.214,0-30.683L26.75,62.119z" fill="#000000" data-original="#000000" style="" class=""/> <path d="M156.437,191.178l85.775-49.183c14.778-8.471,14.778-22.214,0-30.683l-85.775-49.189 c-14.773-8.474-26.756-1.533-26.756,15.506v98.061C129.681,192.71,141.663,199.65,156.437,191.178z" fill="#000000" data-original="#000000" style="" class=""/> </g> </g></symbol><symbol id="heart" viewBox="0 -28 512.00002 512"><title>heart</title><path d="m471.382812 44.578125c-26.503906-28.746094-62.871093-44.578125-102.410156-44.578125-29.554687 0-56.621094 9.34375-80.449218 27.769531-12.023438 9.300781-22.917969 20.679688-32.523438 33.960938-9.601562-13.277344-20.5-24.660157-32.527344-33.960938-23.824218-18.425781-50.890625-27.769531-80.445312-27.769531-39.539063 0-75.910156 15.832031-102.414063 44.578125-26.1875 28.410156-40.613281 67.222656-40.613281 109.292969 0 43.300781 16.136719 82.9375 50.78125 124.742187 30.992188 37.394531 75.535156 75.355469 127.117188 119.3125 17.613281 15.011719 37.578124 32.027344 58.308593 50.152344 5.476563 4.796875 12.503907 7.4375 19.792969 7.4375 7.285156 0 14.316406-2.640625 19.785156-7.429687 20.730469-18.128907 40.707032-35.152344 58.328125-50.171876 51.574219-43.949218 96.117188-81.90625 127.109375-119.304687 34.644532-41.800781 50.777344-81.4375 50.777344-124.742187 0-42.066407-14.425781-80.878907-40.617188-109.289063zm0 0"/></symbol><symbol id="music" viewBox="0 0 512 512"><title>music</title><path d="m202.351 407.732-25.093-137.934-71.294 32.382-69.478 31.558 16.132 89.011c-4.948-.807-10.067-.972-15.267-.018-24.404 4.469-41.069 27.98-36.586 52.384 3.969 21.665 23.403 36.885 44.687 36.885 28.167 0 49.338-25.605 44.282-53.13l-19.526-107.494 35.757-16.241 48.706-22.123 10.554 58.561c-4.988-.798-10.106-.916-15.242.022-24.417 4.479-40.648 27.858-36.152 52.368 4.058 22.121 23.333 36.885 44.165 36.885 28.231 0 49.424-25.476 44.355-53.116z" fill="#9bf"/><path d="m165.225 371.573c-4.988-.798-10.106-.916-15.242.022-24.417 4.479-40.648 27.858-36.152 52.368 4.058 22.121 23.333 36.885 44.165 36.885 28.231 0 49.424-25.475 44.355-53.115l-25.093-137.934-71.294 32.382v32.953l48.706-22.123z" fill="#8095ff"/><path d="m345.965 16.648-50.303 5.076-18.155 137.322c-8.082-6.268-17.532-10.596-27.929-12.103-32.789-4.689-63.23 17.847-67.998 50.742-5.314 36.392 23.047 68.628 59.414 68.628 29.297 0 54.99-21.548 59.326-51.372.009-.06 21.943-165.766 21.943-165.766l23.701-2.388 131.254-13.125-14.11 106.784c-7.921-6.156-17.313-10.611-27.931-12.151-32.585-4.724-63.21 17.717-67.998 50.742-5.314 36.392 23.047 68.628 59.414 68.628 29.297 0 54.99-21.548 59.326-51.387.01-.06 26.046-196.278 26.046-196.278z" fill="#9bf"/><path d="m463.108 140.446c-7.921-6.156-17.313-10.611-27.931-12.151-32.585-4.724-63.21 17.717-67.998 50.742-5.314 36.392 23.047 68.628 59.414 68.628 29.297 0 54.99-21.548 59.326-51.387.01-.06 26.046-196.278 26.046-196.278l-166 16.648v30.139l131.254-13.125z" fill="#8095ff"/><path d="m409.744 274.428-49.105 102.85c-3.53-3.549-7.577-6.678-12.345-8.954-5.621-2.69-11.503-4.1-17.329-4.369-17.584-.811-34.678 8.835-42.671 25.565-14.251 29.832 7.495 64.395 40.518 64.395.732 0 1.425-.266 2.153-.3 16.003-.784 31.157-9.851 38.54-25.276v-.015l36.108-75.615 16.216 45.864 28.271-9.99z" fill="#ffd480"/><path d="m369.505 428.339v-.015l36.108-75.615 16.216 45.864 28.271-9.99-40.356-114.155-49.105 102.85c-3.53-3.549-7.577-6.678-12.345-8.954-5.621-2.69-11.503-4.1-17.329-4.369v89.659c16.003-.783 31.157-9.85 38.54-25.275z" fill="#fb3"/><path d="m154.554 107.392-78.589-52.07-22.339-14.8 22.339 110.087.335 1.652c-.108-.016-.227.02-.335.005-4.85-.668-9.846-.773-14.927.229-24.468 4.991-40.063 28.777-35.142 53.057 4.449 21.815 23.573 36.064 44.004 36.064 2.098 0 4.054-.419 6.064-.69 25.494-3.43 43.356-27.572 38.145-53.275l-16.685-82.119 40.547 26.88z" fill="#ffd480"/><path d="m114.109 187.65-16.685-82.119 40.547 26.88 16.582-25.02-78.589-52.07v95.286l.335 1.652c-.108-.016-.227.02-.335.005v88.66c25.494-3.429 43.356-27.571 38.145-53.274z" fill="#fb3"/></symbol><symbol id="gramophone" viewBox="0 0 512 512"><title>gramophone</title><path d="m376 216 52.649 22.883a40 40 0 0 1 27.351 37.947v51.17a40 40 0 0 1 -40 40h-32v-32h28a12 12 0 0 0 12-12v-41.834a12 12 0 0 0 -10.027-11.837l-37.973-14.329z" fill="#eae9e4"/><path d="m392.786 224.029a70.007 70.007 0 0 0 -36.635-24.858 347.647 347.647 0 0 1 -179.86-120.559l-30.191-38.612-11.392 34.473a293.371 293.371 0 0 0 -13.607 118.7v.006a19.811 19.811 0 0 1 -1.474 9.494 293.4 293.4 0 0 0 -23.027 117.238l.4 36.3 40.479-27.64a347.646 347.646 0 0 1 207.947-60.343 70.005 70.005 0 0 0 42.447-12.578l4.91-31.621z" fill="#f7a014"/><path d="m255.94 218.97a8 8 0 0 1 -7.89 6.78 8.637 8.637 0 0 1 -1.24-.1l-126.49-19.64a7.252 7.252 0 0 1 -1.86-.54c.39-.94.78-1.87 1.17-2.8a19.747 19.747 0 0 0 1.55-7.69c0-.6-.02-1.21-.08-1.81-.09-1.01-.18-2.02-.26-3.04a8.467 8.467 0 0 1 1.94.07l126.48 19.64a8 8 0 0 1 6.68 9.13z" fill="#f7a014"/><path d="m196 336h184a4 4 0 0 1 4 4v76a0 0 0 0 1 0 0h-192a0 0 0 0 1 0 0v-76a4 4 0 0 1 4-4z" fill="#8f5528"/><path d="m194.451 416h187.1a29.855 29.855 0 0 1 26.7 16.5 29.855 29.855 0 0 1 -1.863 29.912l-6.388 9.588h-16a16 16 0 0 0 -16-16h-160a16 16 0 0 0 -16 16h-16l-6.389-9.584a29.855 29.855 0 0 1 -1.863-29.912 29.855 29.855 0 0 1 26.703-16.504z" fill="#7a4922"/><path d="m320 424h-14a18.021 18.021 0 0 1 -18-18v-28a2 2 0 0 0 -2-2h-14a8 8 0 0 1 0-16h14a18.021 18.021 0 0 1 18 18v28a2 2 0 0 0 2 2h14a8 8 0 0 1 0 16z" fill="#eae9e4"/><rect fill="#f7a014" height="32" rx="16" width="32" x="320" y="400"/><g fill="#ffb05e"><path d="m255.94 218.97a8 8 0 0 1 -7.89 6.78 8.637 8.637 0 0 1 -1.24-.1l-126.49-19.64a7.252 7.252 0 0 1 -1.86-.54c.39-.94.78-1.87 1.17-2.8a19.747 19.747 0 0 0 1.55-7.69c0-.6-.02-1.21-.08-1.81-.09-1.01-.18-2.02-.26-3.04a8.467 8.467 0 0 1 1.94.07l126.48 19.64a8 8 0 0 1 6.68 9.13z"/><path d="m251.71 202.03a7.966 7.966 0 0 1 -3.917-1.03l-15.537-8.749a324.63 324.63 0 0 1 -80.135-63.59l-.477-.521a8 8 0 1 1 11.8-10.809l.476.519a308.649 308.649 0 0 0 76.189 60.459l15.538 8.749a8 8 0 0 1 -3.933 14.972z"/><path d="m133 288.842a8 8 0 0 1 -3.983-14.944l.611-.35a324.575 324.575 0 0 1 95.641-36.3l17.458-3.626a8 8 0 1 1 3.253 15.666l-17.459 3.626a308.622 308.622 0 0 0 -90.938 34.511l-.615.353a7.974 7.974 0 0 1 -3.968 1.064z"/></g><path d="m424 312h-80a8 8 0 0 1 0-16h80a8 8 0 0 1 0 16z" fill="#aeadaa"/><path d="m311.992 336a8 8 0 0 1 -6.648-12.439l16-24a8 8 0 0 1 13.312 8.876l-16 24a7.992 7.992 0 0 1 -6.664 3.563z" fill="#aeadaa"/><path d="m424 288h32v32h-32z" fill="#bbbab6"/><circle cx="336" cy="304" fill="#eae9e4" r="16"/></symbol><symbol id="speaker-filled-audio-tool" viewBox="0 0 93.038 93.038"><title>speaker-filled-audio-tool</title><path d="M46.547,75.521c0,1.639-0.947,3.128-2.429,3.823c-0.573,0.271-1.187,0.402-1.797,0.402c-0.966,0-1.923-0.332-2.696-0.973 l-23.098-19.14H4.225C1.892,59.635,0,57.742,0,55.409V38.576c0-2.334,1.892-4.226,4.225-4.226h12.303l23.098-19.14 c1.262-1.046,3.012-1.269,4.493-0.569c1.481,0.695,2.429,2.185,2.429,3.823L46.547,75.521L46.547,75.521z M62.784,68.919 c-0.103,0.007-0.202,0.011-0.304,0.011c-1.116,0-2.192-0.441-2.987-1.237l-0.565-0.567c-1.482-1.479-1.656-3.822-0.408-5.504 c3.164-4.266,4.834-9.323,4.834-14.628c0-5.706-1.896-11.058-5.484-15.478c-1.366-1.68-1.24-4.12,0.291-5.65l0.564-0.565 c0.844-0.844,1.975-1.304,3.199-1.231c1.192,0.06,2.305,0.621,3.061,1.545c4.977,6.09,7.606,13.484,7.606,21.38 c0,7.354-2.325,14.354-6.725,20.24C65.131,68.216,64.007,68.832,62.784,68.919z M80.252,81.976 c-0.764,0.903-1.869,1.445-3.052,1.495c-0.058,0.002-0.117,0.004-0.177,0.004c-1.119,0-2.193-0.442-2.988-1.237l-0.555-0.555 c-1.551-1.55-1.656-4.029-0.246-5.707c6.814-8.104,10.568-18.396,10.568-28.982c0-11.011-4.019-21.611-11.314-29.847 c-1.479-1.672-1.404-4.203,0.17-5.783l0.554-0.555c0.822-0.826,1.89-1.281,3.115-1.242c1.163,0.033,2.263,0.547,3.036,1.417 c8.818,9.928,13.675,22.718,13.675,36.01C93.04,59.783,88.499,72.207,80.252,81.976z"/></symbol><symbol id="mute" viewBox="0 0 448.075 448.075"><title>mute</title><path d="M352.021,16.075c0-6.08-3.52-11.84-8.96-14.4c-5.76-2.88-12.16-1.92-16.96,1.92l-141.76,112.96l167.68,167.68V16.075z"/><path d="M443.349,420.747l-416-416c-6.24-6.24-16.384-6.24-22.624,0s-6.24,16.384,0,22.624l100.672,100.704h-9.376 c-9.92,0-18.56,4.48-24.32,11.52c-4.8,5.44-7.68,12.8-7.68,20.48v128c0,17.6,14.4,32,32,32h74.24l155.84,124.48 c2.88,2.24,6.4,3.52,9.92,3.52c2.24,0,4.8-0.64,7.04-1.6c5.44-2.56,8.96-8.32,8.96-14.4v-57.376l68.672,68.672 c3.136,3.136,7.232,4.704,11.328,4.704s8.192-1.568,11.328-4.672C449.589,437.131,449.589,427.019,443.349,420.747z"/></symbol>
<symbol id="close" viewBox="0 0 365.71733 365"><title>close</title><path d="m356.339844 296.347656-286.613282-286.613281c-12.5-12.5-32.765624-12.5-45.246093 0l-15.105469 15.082031c-12.5 12.503906-12.5 32.769532 0 45.25l286.613281 286.613282c12.503907 12.5 32.769531 12.5 45.25 0l15.082031-15.082032c12.523438-12.480468 12.523438-32.75.019532-45.25zm0 0"/><path d="m295.988281 9.734375-286.613281 286.613281c-12.5 12.5-12.5 32.769532 0 45.25l15.082031 15.082032c12.503907 12.5 32.769531 12.5 45.25 0l286.632813-286.59375c12.503906-12.5 12.503906-32.765626 0-45.246094l-15.082032-15.082032c-12.5-12.523437-32.765624-12.523437-45.269531-.023437zm0 0"/></symbol><symbol id="user" viewBox="0 0 53 53"><title>user</title><path style="fill:#E7ECED;" d="M18.613,41.552l-7.907,4.313c-0.464,0.253-0.881,0.564-1.269,0.903C14.047,50.655,19.998,53,26.5,53 c6.454,0,12.367-2.31,16.964-6.144c-0.424-0.358-0.884-0.68-1.394-0.934l-8.467-4.233c-1.094-0.547-1.785-1.665-1.785-2.888v-3.322 c0.238-0.271,0.51-0.619,0.801-1.03c1.154-1.63,2.027-3.423,2.632-5.304c1.086-0.335,1.886-1.338,1.886-2.53v-3.546 c0-0.78-0.347-1.477-0.886-1.965v-5.126c0,0,1.053-7.977-9.75-7.977s-9.75,7.977-9.75,7.977v5.126 c-0.54,0.488-0.886,1.185-0.886,1.965v3.546c0,0.934,0.491,1.756,1.226,2.231c0.886,3.857,3.206,6.633,3.206,6.633v3.24 C20.296,39.899,19.65,40.986,18.613,41.552z"/><g> <path style="fill:#556080;" d="M26.953,0.004C12.32-0.246,0.254,11.414,0.004,26.047C-0.138,34.344,3.56,41.801,9.448,46.76 c0.385-0.336,0.798-0.644,1.257-0.894l7.907-4.313c1.037-0.566,1.683-1.653,1.683-2.835v-3.24c0,0-2.321-2.776-3.206-6.633 c-0.734-0.475-1.226-1.296-1.226-2.231v-3.546c0-0.78,0.347-1.477,0.886-1.965v-5.126c0,0-1.053-7.977,9.75-7.977 s9.75,7.977,9.75,7.977v5.126c0.54,0.488,0.886,1.185,0.886,1.965v3.546c0,1.192-0.8,2.195-1.886,2.53 c-0.605,1.881-1.478,3.674-2.632,5.304c-0.291,0.411-0.563,0.759-0.801,1.03V38.8c0,1.223,0.691,2.342,1.785,2.888l8.467,4.233 c0.508,0.254,0.967,0.575,1.39,0.932c5.71-4.762,9.399-11.882,9.536-19.9C53.246,12.32,41.587,0.254,26.953,0.004z"/> </g></symbol></svg>